<mxfile host="app.diagrams.net" modified="2022-07-25T08:43:04.386Z" agent="5.0 (Macintosh; Intel Mac OS X 10_15_7) AppleWebKit/537.36 (KHTML, like Gecko) Chrome/103.0.5060.114 Safari/537.36 Edg/103.0.1264.62" etag="GEy-YGCRvATgSSY-EiYH" version="20.2.0" type="github">
  <diagram id="C5RBs43oDa-KdzZeNtuy" name="update_scheme_workflow">
    <mxGraphModel dx="2514" dy="1413" grid="1" gridSize="10" guides="1" tooltips="1" connect="1" arrows="1" fold="1" page="1" pageScale="1" pageWidth="827" pageHeight="1169" math="0" shadow="1">
      <root>
        <mxCell id="WIyWlLk6GJQsqaUBKTNV-0" />
        <mxCell id="WIyWlLk6GJQsqaUBKTNV-1" parent="WIyWlLk6GJQsqaUBKTNV-0" />
        <mxCell id="N3WS-AlwFbJby_XCKeYA-20" style="edgeStyle=orthogonalEdgeStyle;orthogonalLoop=1;jettySize=auto;html=1;fontFamily=Verdana;curved=1;" parent="WIyWlLk6GJQsqaUBKTNV-1" source="N3WS-AlwFbJby_XCKeYA-1" target="N3WS-AlwFbJby_XCKeYA-2" edge="1">
          <mxGeometry relative="1" as="geometry" />
        </mxCell>
        <mxCell id="N3WS-AlwFbJby_XCKeYA-21" style="edgeStyle=orthogonalEdgeStyle;orthogonalLoop=1;jettySize=auto;html=1;fontFamily=Verdana;curved=1;" parent="WIyWlLk6GJQsqaUBKTNV-1" source="N3WS-AlwFbJby_XCKeYA-1" target="N3WS-AlwFbJby_XCKeYA-19" edge="1">
          <mxGeometry relative="1" as="geometry" />
        </mxCell>
        <mxCell id="N3WS-AlwFbJby_XCKeYA-1" value="Start" style="strokeWidth=2;html=1;shape=mxgraph.flowchart.start_1;whiteSpace=wrap;fillColor=#fff2cc;strokeColor=#d6b656;rounded=1;" parent="WIyWlLk6GJQsqaUBKTNV-1" vertex="1">
          <mxGeometry x="657" y="310" width="100" height="60" as="geometry" />
        </mxCell>
        <mxCell id="N3WS-AlwFbJby_XCKeYA-23" style="edgeStyle=orthogonalEdgeStyle;orthogonalLoop=1;jettySize=auto;html=1;entryX=0;entryY=0.5;entryDx=0;entryDy=0;fontFamily=Verdana;curved=1;" parent="WIyWlLk6GJQsqaUBKTNV-1" source="N3WS-AlwFbJby_XCKeYA-2" target="N3WS-AlwFbJby_XCKeYA-22" edge="1">
          <mxGeometry relative="1" as="geometry" />
        </mxCell>
        <mxCell id="N3WS-AlwFbJby_XCKeYA-2" value="&lt;span style=&quot;color: rgb(50, 50, 50); font-family: 微软雅黑; font-size: 13px; font-weight: 700; background-color: rgba(255, 255, 255, 0.01);&quot;&gt;get latest kafka topic schema&lt;/span&gt;" style="whiteSpace=wrap;html=1;absoluteArcSize=1;arcSize=14;strokeWidth=2;fillColor=#d5e8d4;strokeColor=#82b366;rounded=1;" parent="WIyWlLk6GJQsqaUBKTNV-1" vertex="1">
          <mxGeometry x="517" y="450" width="140" height="100" as="geometry" />
        </mxCell>
        <mxCell id="N3WS-AlwFbJby_XCKeYA-11" style="edgeStyle=orthogonalEdgeStyle;orthogonalLoop=1;jettySize=auto;html=1;exitX=0.5;exitY=1;exitDx=0;exitDy=0;entryX=0.5;entryY=0;entryDx=0;entryDy=0;fontFamily=Verdana;curved=1;" parent="WIyWlLk6GJQsqaUBKTNV-1" source="N3WS-AlwFbJby_XCKeYA-4" target="N3WS-AlwFbJby_XCKeYA-10" edge="1">
          <mxGeometry relative="1" as="geometry" />
        </mxCell>
        <mxCell id="N3WS-AlwFbJby_XCKeYA-4" value="&lt;span style=&quot;color: rgb(50, 50, 50); font-family: 微软雅黑; font-size: 13px; font-weight: 700; background-color: rgba(255, 255, 255, 0.01);&quot;&gt;check pipeline if exists&lt;br&gt;&lt;/span&gt;" style="whiteSpace=wrap;html=1;absoluteArcSize=1;arcSize=14;strokeWidth=2;fillColor=#dae8fc;strokeColor=#6c8ebf;rounded=1;" parent="WIyWlLk6GJQsqaUBKTNV-1" vertex="1">
          <mxGeometry x="652" y="10" width="110" height="100" as="geometry" />
        </mxCell>
        <mxCell id="N3WS-AlwFbJby_XCKeYA-16" style="edgeStyle=orthogonalEdgeStyle;orthogonalLoop=1;jettySize=auto;html=1;entryX=0.5;entryY=0;entryDx=0;entryDy=0;entryPerimeter=0;fontFamily=Verdana;curved=1;" parent="WIyWlLk6GJQsqaUBKTNV-1" source="N3WS-AlwFbJby_XCKeYA-10" target="N3WS-AlwFbJby_XCKeYA-1" edge="1">
          <mxGeometry relative="1" as="geometry" />
        </mxCell>
        <mxCell id="N3WS-AlwFbJby_XCKeYA-10" value="&lt;span style=&quot;color: rgb(50, 50, 50); font-family: 微软雅黑; font-size: 13px; font-weight: 700; background-color: rgba(255, 255, 255, 0.01);&quot;&gt;check schema if exists and changed&lt;/span&gt;&lt;span style=&quot;color: rgb(50, 50, 50); font-family: 微软雅黑; font-size: 13px; font-weight: 700; background-color: rgba(255, 255, 255, 0.01);&quot;&gt;&lt;br&gt;&lt;/span&gt;" style="whiteSpace=wrap;html=1;absoluteArcSize=1;arcSize=14;strokeWidth=2;fillColor=#dae8fc;strokeColor=#6c8ebf;rounded=1;" parent="WIyWlLk6GJQsqaUBKTNV-1" vertex="1">
          <mxGeometry x="657" y="150" width="110" height="100" as="geometry" />
        </mxCell>
        <mxCell id="N3WS-AlwFbJby_XCKeYA-18" style="edgeStyle=orthogonalEdgeStyle;orthogonalLoop=1;jettySize=auto;html=1;exitX=1;exitY=0.5;exitDx=0;exitDy=0;entryX=0;entryY=0.5;entryDx=0;entryDy=0;fontFamily=Verdana;curved=1;" parent="WIyWlLk6GJQsqaUBKTNV-1" source="N3WS-AlwFbJby_XCKeYA-17" target="N3WS-AlwFbJby_XCKeYA-4" edge="1">
          <mxGeometry relative="1" as="geometry" />
        </mxCell>
        <mxCell id="N3WS-AlwFbJby_XCKeYA-17" value="submit" style="html=1;strokeWidth=2;shape=manualInput;whiteSpace=wrap;size=26;arcSize=11;fontFamily=Verdana;fillColor=#f8cecc;strokeColor=#b85450;rounded=1;" parent="WIyWlLk6GJQsqaUBKTNV-1" vertex="1">
          <mxGeometry x="452" y="30" width="100" height="60" as="geometry" />
        </mxCell>
        <mxCell id="N3WS-AlwFbJby_XCKeYA-24" style="edgeStyle=orthogonalEdgeStyle;orthogonalLoop=1;jettySize=auto;html=1;entryX=1;entryY=0.5;entryDx=0;entryDy=0;fontFamily=Verdana;curved=1;" parent="WIyWlLk6GJQsqaUBKTNV-1" source="N3WS-AlwFbJby_XCKeYA-19" target="N3WS-AlwFbJby_XCKeYA-22" edge="1">
          <mxGeometry relative="1" as="geometry">
            <Array as="points">
              <mxPoint x="832" y="620" />
            </Array>
          </mxGeometry>
        </mxCell>
        <mxCell id="N3WS-AlwFbJby_XCKeYA-19" value="&lt;span style=&quot;color: rgb(50, 50, 50); font-family: 微软雅黑; font-size: 13px; font-weight: 700; background-color: rgba(255, 255, 255, 0.01);&quot;&gt;get data model pii info&lt;/span&gt;" style="whiteSpace=wrap;html=1;absoluteArcSize=1;arcSize=14;strokeWidth=2;fillColor=#d5e8d4;strokeColor=#82b366;rounded=1;" parent="WIyWlLk6GJQsqaUBKTNV-1" vertex="1">
          <mxGeometry x="757" y="450" width="140" height="100" as="geometry" />
        </mxCell>
        <mxCell id="N3WS-AlwFbJby_XCKeYA-26" style="edgeStyle=orthogonalEdgeStyle;orthogonalLoop=1;jettySize=auto;html=1;fontFamily=Verdana;curved=1;" parent="WIyWlLk6GJQsqaUBKTNV-1" source="N3WS-AlwFbJby_XCKeYA-22" target="N3WS-AlwFbJby_XCKeYA-25" edge="1">
          <mxGeometry relative="1" as="geometry" />
        </mxCell>
        <mxCell id="N3WS-AlwFbJby_XCKeYA-22" value="&lt;span style=&quot;color: rgb(50, 50, 50); font-family: 微软雅黑; font-size: 13px; font-weight: 700; background-color: rgba(255, 255, 255, 0.01);&quot;&gt;create data model&lt;/span&gt;" style="whiteSpace=wrap;html=1;absoluteArcSize=1;arcSize=14;strokeWidth=2;fillColor=#d5e8d4;strokeColor=#82b366;rounded=1;" parent="WIyWlLk6GJQsqaUBKTNV-1" vertex="1">
          <mxGeometry x="637" y="570" width="140" height="100" as="geometry" />
        </mxCell>
        <mxCell id="N3WS-AlwFbJby_XCKeYA-29" style="edgeStyle=orthogonalEdgeStyle;orthogonalLoop=1;jettySize=auto;html=1;exitX=0.5;exitY=1;exitDx=0;exitDy=0;fontFamily=Verdana;curved=1;" parent="WIyWlLk6GJQsqaUBKTNV-1" source="N3WS-AlwFbJby_XCKeYA-25" target="N3WS-AlwFbJby_XCKeYA-27" edge="1">
          <mxGeometry relative="1" as="geometry" />
        </mxCell>
        <mxCell id="N3WS-AlwFbJby_XCKeYA-25" value="&lt;span style=&quot;color: rgb(50, 50, 50); font-family: 微软雅黑; font-size: 13px; font-weight: 700; background-color: rgba(255, 255, 255, 0.01);&quot;&gt;notify end user&lt;/span&gt;" style="whiteSpace=wrap;html=1;absoluteArcSize=1;arcSize=14;strokeWidth=2;fillColor=#d5e8d4;strokeColor=#82b366;rounded=1;" parent="WIyWlLk6GJQsqaUBKTNV-1" vertex="1">
          <mxGeometry x="637" y="720" width="140" height="100" as="geometry" />
        </mxCell>
        <mxCell id="N3WS-AlwFbJby_XCKeYA-31" style="edgeStyle=orthogonalEdgeStyle;orthogonalLoop=1;jettySize=auto;html=1;exitX=0.5;exitY=1;exitDx=0;exitDy=0;fontFamily=Verdana;curved=1;" parent="WIyWlLk6GJQsqaUBKTNV-1" source="N3WS-AlwFbJby_XCKeYA-27" target="N3WS-AlwFbJby_XCKeYA-30" edge="1">
          <mxGeometry relative="1" as="geometry" />
        </mxCell>
        <mxCell id="N3WS-AlwFbJby_XCKeYA-27" value="&lt;span style=&quot;color: rgb(50, 50, 50); font-family: 微软雅黑; font-size: 13px; font-weight: 700; background-color: rgba(255, 255, 255, 0.01);&quot;&gt;get data model status&lt;/span&gt;" style="whiteSpace=wrap;html=1;absoluteArcSize=1;arcSize=14;strokeWidth=2;fillColor=#e51400;strokeColor=#B20000;fontColor=#ffffff;rounded=1;" parent="WIyWlLk6GJQsqaUBKTNV-1" vertex="1">
          <mxGeometry x="637" y="860" width="140" height="100" as="geometry" />
        </mxCell>
        <mxCell id="N3WS-AlwFbJby_XCKeYA-35" style="edgeStyle=orthogonalEdgeStyle;orthogonalLoop=1;jettySize=auto;html=1;fontFamily=Verdana;entryX=1;entryY=0.5;entryDx=0;entryDy=0;curved=1;" parent="WIyWlLk6GJQsqaUBKTNV-1" source="N3WS-AlwFbJby_XCKeYA-30" target="N3WS-AlwFbJby_XCKeYA-22" edge="1">
          <mxGeometry relative="1" as="geometry">
            <mxPoint x="922" y="690" as="targetPoint" />
            <Array as="points">
              <mxPoint x="832" y="1050" />
              <mxPoint x="832" y="620" />
            </Array>
          </mxGeometry>
        </mxCell>
        <mxCell id="N3WS-AlwFbJby_XCKeYA-36" value="NO" style="edgeLabel;html=1;align=center;verticalAlign=middle;resizable=0;points=[];fontFamily=Verdana;rounded=1;" parent="N3WS-AlwFbJby_XCKeYA-35" vertex="1" connectable="0">
          <mxGeometry x="0.0982" y="1" relative="1" as="geometry">
            <mxPoint as="offset" />
          </mxGeometry>
        </mxCell>
        <mxCell id="N3WS-AlwFbJby_XCKeYA-41" style="edgeStyle=orthogonalEdgeStyle;orthogonalLoop=1;jettySize=auto;html=1;exitX=0.5;exitY=1;exitDx=0;exitDy=0;exitPerimeter=0;entryX=0.5;entryY=0;entryDx=0;entryDy=0;fontFamily=Verdana;curved=1;" parent="WIyWlLk6GJQsqaUBKTNV-1" source="N3WS-AlwFbJby_XCKeYA-30" target="N3WS-AlwFbJby_XCKeYA-37" edge="1">
          <mxGeometry relative="1" as="geometry">
            <Array as="points">
              <mxPoint x="707" y="1120" />
              <mxPoint x="567" y="1120" />
            </Array>
          </mxGeometry>
        </mxCell>
        <mxCell id="N3WS-AlwFbJby_XCKeYA-42" style="edgeStyle=orthogonalEdgeStyle;orthogonalLoop=1;jettySize=auto;html=1;fontFamily=Verdana;entryX=0.5;entryY=0;entryDx=0;entryDy=0;curved=1;" parent="WIyWlLk6GJQsqaUBKTNV-1" source="N3WS-AlwFbJby_XCKeYA-30" target="N3WS-AlwFbJby_XCKeYA-38" edge="1">
          <mxGeometry relative="1" as="geometry">
            <Array as="points">
              <mxPoint x="707" y="1120" />
              <mxPoint x="902" y="1120" />
            </Array>
          </mxGeometry>
        </mxCell>
        <mxCell id="N3WS-AlwFbJby_XCKeYA-43" value="YES" style="edgeLabel;html=1;align=center;verticalAlign=middle;resizable=0;points=[];fontFamily=Verdana;rounded=1;" parent="N3WS-AlwFbJby_XCKeYA-42" vertex="1" connectable="0">
          <mxGeometry x="-0.8465" y="1" relative="1" as="geometry">
            <mxPoint as="offset" />
          </mxGeometry>
        </mxCell>
        <mxCell id="N3WS-AlwFbJby_XCKeYA-30" value="approved?" style="strokeWidth=2;html=1;shape=mxgraph.flowchart.loop_limit;whiteSpace=wrap;fontFamily=Verdana;fillColor=#fff2cc;strokeColor=#d6b656;rounded=1;" parent="WIyWlLk6GJQsqaUBKTNV-1" vertex="1">
          <mxGeometry x="657" y="1020" width="100" height="60" as="geometry" />
        </mxCell>
        <mxCell id="N3WS-AlwFbJby_XCKeYA-47" style="edgeStyle=orthogonalEdgeStyle;orthogonalLoop=1;jettySize=auto;html=1;entryX=0.5;entryY=0;entryDx=0;entryDy=0;fontFamily=Verdana;curved=1;" parent="WIyWlLk6GJQsqaUBKTNV-1" source="N3WS-AlwFbJby_XCKeYA-37" target="N3WS-AlwFbJby_XCKeYA-44" edge="1">
          <mxGeometry relative="1" as="geometry" />
        </mxCell>
        <mxCell id="N3WS-AlwFbJby_XCKeYA-37" value="&lt;font face=&quot;微软雅黑&quot; color=&quot;#323232&quot;&gt;&lt;span style=&quot;font-size: 13px; background-color: rgba(255, 255, 255, 0.01);&quot;&gt;&lt;b&gt;check job status&lt;/b&gt;&lt;/span&gt;&lt;/font&gt;" style="whiteSpace=wrap;html=1;absoluteArcSize=1;arcSize=14;strokeWidth=2;fillColor=#e51400;strokeColor=#B20000;fontColor=#ffffff;rounded=1;" parent="WIyWlLk6GJQsqaUBKTNV-1" vertex="1">
          <mxGeometry x="497" y="1169" width="140" height="100" as="geometry" />
        </mxCell>
        <mxCell id="N3WS-AlwFbJby_XCKeYA-56" style="edgeStyle=orthogonalEdgeStyle;orthogonalLoop=1;jettySize=auto;html=1;entryX=0.5;entryY=0;entryDx=0;entryDy=0;fontFamily=Verdana;curved=1;" parent="WIyWlLk6GJQsqaUBKTNV-1" source="N3WS-AlwFbJby_XCKeYA-38" target="N3WS-AlwFbJby_XCKeYA-55" edge="1">
          <mxGeometry relative="1" as="geometry" />
        </mxCell>
        <mxCell id="N3WS-AlwFbJby_XCKeYA-38" value="&lt;font face=&quot;微软雅黑&quot; color=&quot;#323232&quot;&gt;&lt;span style=&quot;font-size: 13px; background-color: rgba(255, 255, 255, 0.01);&quot;&gt;&lt;b&gt;generate and retrieve ddl&lt;/b&gt;&lt;/span&gt;&lt;/font&gt;" style="whiteSpace=wrap;html=1;absoluteArcSize=1;arcSize=14;strokeWidth=2;fillColor=#d5e8d4;strokeColor=#82b366;rounded=1;" parent="WIyWlLk6GJQsqaUBKTNV-1" vertex="1">
          <mxGeometry x="832" y="1169" width="140" height="100" as="geometry" />
        </mxCell>
        <mxCell id="N3WS-AlwFbJby_XCKeYA-48" style="edgeStyle=orthogonalEdgeStyle;orthogonalLoop=1;jettySize=auto;html=1;fontFamily=Verdana;curved=1;" parent="WIyWlLk6GJQsqaUBKTNV-1" source="N3WS-AlwFbJby_XCKeYA-44" edge="1">
          <mxGeometry relative="1" as="geometry">
            <mxPoint x="472" y="1510" as="targetPoint" />
            <Array as="points">
              <mxPoint x="567" y="1470" />
              <mxPoint x="472" y="1470" />
            </Array>
          </mxGeometry>
        </mxCell>
        <mxCell id="N3WS-AlwFbJby_XCKeYA-49" style="edgeStyle=orthogonalEdgeStyle;orthogonalLoop=1;jettySize=auto;html=1;fontFamily=Verdana;curved=1;" parent="WIyWlLk6GJQsqaUBKTNV-1" source="N3WS-AlwFbJby_XCKeYA-44" target="N3WS-AlwFbJby_XCKeYA-46" edge="1">
          <mxGeometry relative="1" as="geometry" />
        </mxCell>
        <mxCell id="N3WS-AlwFbJby_XCKeYA-44" value="&lt;font face=&quot;微软雅黑&quot; color=&quot;#323232&quot;&gt;&lt;span style=&quot;font-size: 13px; background-color: rgba(255, 255, 255, 0.01);&quot;&gt;&lt;b&gt;terminated job with savepoint&lt;/b&gt;&lt;/span&gt;&lt;/font&gt;" style="whiteSpace=wrap;html=1;absoluteArcSize=1;arcSize=14;strokeWidth=2;fillColor=#d5e8d4;strokeColor=#82b366;rounded=1;" parent="WIyWlLk6GJQsqaUBKTNV-1" vertex="1">
          <mxGeometry x="497" y="1330" width="140" height="100" as="geometry" />
        </mxCell>
        <mxCell id="N3WS-AlwFbJby_XCKeYA-51" style="edgeStyle=orthogonalEdgeStyle;orthogonalLoop=1;jettySize=auto;html=1;entryX=0;entryY=0.5;entryDx=0;entryDy=0;fontFamily=Verdana;curved=1;" parent="WIyWlLk6GJQsqaUBKTNV-1" target="N3WS-AlwFbJby_XCKeYA-50" edge="1">
          <mxGeometry relative="1" as="geometry">
            <mxPoint x="472" y="1610" as="sourcePoint" />
          </mxGeometry>
        </mxCell>
        <mxCell id="N3WS-AlwFbJby_XCKeYA-45" value="&lt;font face=&quot;微软雅黑&quot; color=&quot;#323232&quot;&gt;&lt;span style=&quot;font-size: 13px; background-color: rgba(255, 255, 255, 0.01);&quot;&gt;&lt;b&gt;check job status&lt;/b&gt;&lt;/span&gt;&lt;/font&gt;" style="whiteSpace=wrap;html=1;absoluteArcSize=1;arcSize=14;strokeWidth=2;fillColor=#e51400;strokeColor=#B20000;fontColor=#ffffff;rounded=1;" parent="WIyWlLk6GJQsqaUBKTNV-1" vertex="1">
          <mxGeometry x="360" y="1510" width="140" height="100" as="geometry" />
        </mxCell>
        <mxCell id="N3WS-AlwFbJby_XCKeYA-54" style="edgeStyle=orthogonalEdgeStyle;orthogonalLoop=1;jettySize=auto;html=1;entryX=1;entryY=0.5;entryDx=0;entryDy=0;fontFamily=Verdana;curved=1;" parent="WIyWlLk6GJQsqaUBKTNV-1" source="N3WS-AlwFbJby_XCKeYA-46" target="N3WS-AlwFbJby_XCKeYA-50" edge="1">
          <mxGeometry relative="1" as="geometry" />
        </mxCell>
        <mxCell id="N3WS-AlwFbJby_XCKeYA-46" value="&lt;font face=&quot;微软雅黑&quot; color=&quot;#323232&quot;&gt;&lt;span style=&quot;font-size: 13px; background-color: rgba(255, 255, 255, 0.01);&quot;&gt;&lt;b&gt;check savepoint status&lt;/b&gt;&lt;/span&gt;&lt;/font&gt;" style="whiteSpace=wrap;html=1;absoluteArcSize=1;arcSize=14;strokeWidth=2;fillColor=#e51400;strokeColor=#B20000;fontColor=#ffffff;rounded=1;" parent="WIyWlLk6GJQsqaUBKTNV-1" vertex="1">
          <mxGeometry x="612" y="1510" width="140" height="100" as="geometry" />
        </mxCell>
        <mxCell id="N3WS-AlwFbJby_XCKeYA-65" style="edgeStyle=orthogonalEdgeStyle;orthogonalLoop=1;jettySize=auto;html=1;entryX=0.5;entryY=0;entryDx=0;entryDy=0;fontFamily=Verdana;curved=1;" parent="WIyWlLk6GJQsqaUBKTNV-1" source="N3WS-AlwFbJby_XCKeYA-50" target="N3WS-AlwFbJby_XCKeYA-64" edge="1">
          <mxGeometry relative="1" as="geometry">
            <Array as="points">
              <mxPoint x="582" y="1780" />
              <mxPoint x="736" y="1780" />
            </Array>
          </mxGeometry>
        </mxCell>
        <mxCell id="N3WS-AlwFbJby_XCKeYA-50" value="&lt;font face=&quot;微软雅黑&quot; color=&quot;#323232&quot;&gt;&lt;span style=&quot;font-size: 13px; background-color: rgba(255, 255, 255, 0.01);&quot;&gt;&lt;b&gt;update sql script&lt;/b&gt;&lt;/span&gt;&lt;/font&gt;" style="whiteSpace=wrap;html=1;absoluteArcSize=1;arcSize=14;strokeWidth=2;fillColor=#d5e8d4;strokeColor=#82b366;rounded=1;" parent="WIyWlLk6GJQsqaUBKTNV-1" vertex="1">
          <mxGeometry x="512" y="1640" width="140" height="100" as="geometry" />
        </mxCell>
        <mxCell id="N3WS-AlwFbJby_XCKeYA-58" style="edgeStyle=orthogonalEdgeStyle;orthogonalLoop=1;jettySize=auto;html=1;entryX=0.5;entryY=0;entryDx=0;entryDy=0;fontFamily=Verdana;curved=1;" parent="WIyWlLk6GJQsqaUBKTNV-1" source="N3WS-AlwFbJby_XCKeYA-55" target="N3WS-AlwFbJby_XCKeYA-57" edge="1">
          <mxGeometry relative="1" as="geometry" />
        </mxCell>
        <mxCell id="N3WS-AlwFbJby_XCKeYA-55" value="&lt;font face=&quot;微软雅黑&quot; color=&quot;#323232&quot;&gt;&lt;span style=&quot;font-size: 13px; background-color: rgba(255, 255, 255, 0.01);&quot;&gt;&lt;b&gt;release ddl&lt;/b&gt;&lt;/span&gt;&lt;/font&gt;" style="whiteSpace=wrap;html=1;absoluteArcSize=1;arcSize=14;strokeWidth=2;fillColor=#d5e8d4;strokeColor=#82b366;rounded=1;" parent="WIyWlLk6GJQsqaUBKTNV-1" vertex="1">
          <mxGeometry x="832" y="1330" width="140" height="100" as="geometry" />
        </mxCell>
        <mxCell id="N3WS-AlwFbJby_XCKeYA-60" style="edgeStyle=orthogonalEdgeStyle;orthogonalLoop=1;jettySize=auto;html=1;exitX=0.5;exitY=1;exitDx=0;exitDy=0;fontFamily=Verdana;curved=1;" parent="WIyWlLk6GJQsqaUBKTNV-1" source="N3WS-AlwFbJby_XCKeYA-57" target="N3WS-AlwFbJby_XCKeYA-59" edge="1">
          <mxGeometry relative="1" as="geometry" />
        </mxCell>
        <mxCell id="N3WS-AlwFbJby_XCKeYA-57" value="&lt;font face=&quot;微软雅黑&quot; color=&quot;#323232&quot;&gt;&lt;span style=&quot;font-size: 13px; background-color: rgba(255, 255, 255, 0.01);&quot;&gt;&lt;b&gt;get release status&lt;/b&gt;&lt;/span&gt;&lt;/font&gt;" style="whiteSpace=wrap;html=1;absoluteArcSize=1;arcSize=14;strokeWidth=2;fillColor=#e51400;strokeColor=#B20000;fontColor=#ffffff;rounded=1;" parent="WIyWlLk6GJQsqaUBKTNV-1" vertex="1">
          <mxGeometry x="832" y="1510" width="140" height="100" as="geometry" />
        </mxCell>
        <mxCell id="N3WS-AlwFbJby_XCKeYA-61" style="edgeStyle=orthogonalEdgeStyle;orthogonalLoop=1;jettySize=auto;html=1;entryX=1;entryY=0.5;entryDx=0;entryDy=0;fontFamily=Verdana;curved=1;" parent="WIyWlLk6GJQsqaUBKTNV-1" source="N3WS-AlwFbJby_XCKeYA-59" target="N3WS-AlwFbJby_XCKeYA-57" edge="1">
          <mxGeometry relative="1" as="geometry">
            <Array as="points">
              <mxPoint x="1072" y="1690" />
              <mxPoint x="1072" y="1560" />
            </Array>
          </mxGeometry>
        </mxCell>
        <mxCell id="N3WS-AlwFbJby_XCKeYA-62" value="NO" style="edgeLabel;html=1;align=center;verticalAlign=middle;resizable=0;points=[];fontFamily=Verdana;rounded=1;" parent="N3WS-AlwFbJby_XCKeYA-61" vertex="1" connectable="0">
          <mxGeometry x="0.0829" y="-3" relative="1" as="geometry">
            <mxPoint y="1" as="offset" />
          </mxGeometry>
        </mxCell>
        <mxCell id="N3WS-AlwFbJby_XCKeYA-66" style="edgeStyle=orthogonalEdgeStyle;orthogonalLoop=1;jettySize=auto;html=1;entryX=0.5;entryY=0;entryDx=0;entryDy=0;fontFamily=Verdana;curved=1;" parent="WIyWlLk6GJQsqaUBKTNV-1" source="N3WS-AlwFbJby_XCKeYA-59" target="N3WS-AlwFbJby_XCKeYA-64" edge="1">
          <mxGeometry relative="1" as="geometry">
            <Array as="points">
              <mxPoint x="902" y="1780" />
              <mxPoint x="736" y="1780" />
            </Array>
          </mxGeometry>
        </mxCell>
        <mxCell id="N3WS-AlwFbJby_XCKeYA-67" value="YES" style="edgeLabel;html=1;align=center;verticalAlign=middle;resizable=0;points=[];fontFamily=Verdana;rounded=1;" parent="N3WS-AlwFbJby_XCKeYA-66" vertex="1" connectable="0">
          <mxGeometry x="-0.2754" y="-2" relative="1" as="geometry">
            <mxPoint as="offset" />
          </mxGeometry>
        </mxCell>
        <mxCell id="N3WS-AlwFbJby_XCKeYA-59" value="succeed?" style="strokeWidth=2;html=1;shape=mxgraph.flowchart.loop_limit;whiteSpace=wrap;fontFamily=Verdana;fillColor=#fff2cc;strokeColor=#d6b656;rounded=1;" parent="WIyWlLk6GJQsqaUBKTNV-1" vertex="1">
          <mxGeometry x="852" y="1660" width="100" height="60" as="geometry" />
        </mxCell>
        <mxCell id="N3WS-AlwFbJby_XCKeYA-70" style="edgeStyle=orthogonalEdgeStyle;orthogonalLoop=1;jettySize=auto;html=1;fontFamily=Verdana;curved=1;" parent="WIyWlLk6GJQsqaUBKTNV-1" source="N3WS-AlwFbJby_XCKeYA-64" target="N3WS-AlwFbJby_XCKeYA-69" edge="1">
          <mxGeometry relative="1" as="geometry" />
        </mxCell>
        <mxCell id="N3WS-AlwFbJby_XCKeYA-64" value="&lt;font face=&quot;微软雅黑&quot; color=&quot;#323232&quot;&gt;&lt;span style=&quot;font-size: 13px; background-color: rgba(255, 255, 255, 0.01);&quot;&gt;&lt;b&gt;resume job from latest savepoint&lt;/b&gt;&lt;/span&gt;&lt;/font&gt;" style="whiteSpace=wrap;html=1;absoluteArcSize=1;arcSize=14;strokeWidth=2;fillColor=#d5e8d4;strokeColor=#82b366;rounded=1;" parent="WIyWlLk6GJQsqaUBKTNV-1" vertex="1">
          <mxGeometry x="666" y="1810" width="140" height="100" as="geometry" />
        </mxCell>
        <mxCell id="N3WS-AlwFbJby_XCKeYA-72" style="edgeStyle=orthogonalEdgeStyle;orthogonalLoop=1;jettySize=auto;html=1;entryX=0.5;entryY=0;entryDx=0;entryDy=0;entryPerimeter=0;fontFamily=Verdana;curved=1;" parent="WIyWlLk6GJQsqaUBKTNV-1" source="N3WS-AlwFbJby_XCKeYA-69" target="N3WS-AlwFbJby_XCKeYA-71" edge="1">
          <mxGeometry relative="1" as="geometry" />
        </mxCell>
        <mxCell id="N3WS-AlwFbJby_XCKeYA-69" value="&lt;font face=&quot;微软雅黑&quot; color=&quot;#323232&quot;&gt;&lt;span style=&quot;font-size: 13px; background-color: rgba(255, 255, 255, 0.01);&quot;&gt;&lt;b&gt;check job status&lt;/b&gt;&lt;/span&gt;&lt;/font&gt;" style="whiteSpace=wrap;html=1;absoluteArcSize=1;arcSize=14;strokeWidth=2;fillColor=#e51400;strokeColor=#B20000;fontColor=#ffffff;rounded=1;" parent="WIyWlLk6GJQsqaUBKTNV-1" vertex="1">
          <mxGeometry x="666" y="1960" width="140" height="100" as="geometry" />
        </mxCell>
        <mxCell id="N3WS-AlwFbJby_XCKeYA-71" value="End" style="strokeWidth=2;html=1;shape=mxgraph.flowchart.terminator;whiteSpace=wrap;fontFamily=Verdana;fillColor=#fff2cc;strokeColor=#d6b656;rounded=1;" parent="WIyWlLk6GJQsqaUBKTNV-1" vertex="1">
          <mxGeometry x="686" y="2140" width="100" height="60" as="geometry" />
        </mxCell>
        <mxCell id="AA8sRhwJF1TLNbDGQwFw-1" value="&lt;p style=&quot;text-align: left; box-sizing: border-box; margin: 0px; padding: 0px; color: rgb(42, 43, 46); font-size: 16px; line-height: 24px; caret-color: rgb(42, 43, 46); font-family: &amp;quot;PingFang SC&amp;quot;, &amp;quot;Microsoft YaHei&amp;quot;, 微软雅黑, 宋体, &amp;quot;Malgun Gothic&amp;quot;, sans-serif; text-size-adjust: auto;&quot; class=&quot;tgt color_text_1 un-step-trans&quot; data-section=&quot;0&quot;&gt;&lt;span style=&quot;box-sizing: border-box; background-color: rgba(255, 228, 181, 0.7); line-height: 24px; display: inline;&quot; class=&quot;tgt color_text_1 highlight&quot; data-group=&quot;0-0&quot; data-sentence=&quot;0&quot; data-section=&quot;0&quot;&gt;&lt;b&gt;1. Do we need a table to record datamodel related&lt;/b&gt;&lt;/span&gt;&lt;/p&gt;&lt;p style=&quot;text-align: left; box-sizing: border-box; margin: 0px; padding: 0px; color: rgb(42, 43, 46); font-size: 16px; line-height: 24px; caret-color: rgb(42, 43, 46); font-family: &amp;quot;PingFang SC&amp;quot;, &amp;quot;Microsoft YaHei&amp;quot;, 微软雅黑, 宋体, &amp;quot;Malgun Gothic&amp;quot;, sans-serif; text-size-adjust: auto;&quot; class=&quot;tgt color_text_1 un-step-trans&quot; data-section=&quot;0&quot;&gt;&lt;span style=&quot;box-sizing: border-box; background-color: rgba(255, 228, 181, 0.7); line-height: 24px; display: inline;&quot; class=&quot;tgt color_text_1 highlight&quot; data-group=&quot;0-0&quot; data-sentence=&quot;0&quot; data-section=&quot;0&quot;&gt;&lt;b&gt;&amp;nbsp; &amp;nbsp;information, such as PII related information.&lt;/b&gt;&lt;/span&gt;&lt;/p&gt;" style="text;html=1;resizable=0;autosize=1;align=center;verticalAlign=middle;points=[];fillColor=#ffe6cc;strokeColor=#d79b00;rounded=0;fillStyle=auto;" parent="WIyWlLk6GJQsqaUBKTNV-1" vertex="1">
          <mxGeometry x="925" y="470" width="410" height="60" as="geometry" />
        </mxCell>
        <mxCell id="AA8sRhwJF1TLNbDGQwFw-2" value="&lt;p style=&quot;text-align: left; box-sizing: border-box; margin: 0px; padding: 0px; color: rgb(42, 43, 46); font-size: 16px; line-height: 24px; caret-color: rgb(42, 43, 46); font-family: &amp;quot;PingFang SC&amp;quot;, &amp;quot;Microsoft YaHei&amp;quot;, 微软雅黑, 宋体, &amp;quot;Malgun Gothic&amp;quot;, sans-serif; text-size-adjust: auto;&quot; class=&quot;tgt color_text_1 un-step-trans&quot; data-section=&quot;1&quot;&gt;&lt;span style=&quot;box-sizing: border-box; line-height: 24px; display: inline;&quot; class=&quot;tgt color_text_1&quot; data-group=&quot;1-0&quot; data-sentence=&quot;0&quot; data-section=&quot;1&quot;&gt;&lt;b&gt;2. After approving the Datamodel, whether we need&amp;nbsp;&lt;/b&gt;&lt;/span&gt;&lt;/p&gt;&lt;p style=&quot;text-align: left; box-sizing: border-box; margin: 0px; padding: 0px; color: rgb(42, 43, 46); font-size: 16px; line-height: 24px; caret-color: rgb(42, 43, 46); font-family: &amp;quot;PingFang SC&amp;quot;, &amp;quot;Microsoft YaHei&amp;quot;, 微软雅黑, 宋体, &amp;quot;Malgun Gothic&amp;quot;, sans-serif; text-size-adjust: auto;&quot; class=&quot;tgt color_text_1 un-step-trans&quot; data-section=&quot;1&quot;&gt;&lt;span style=&quot;box-sizing: border-box; line-height: 24px; display: inline;&quot; class=&quot;tgt color_text_1&quot; data-group=&quot;1-0&quot; data-sentence=&quot;0&quot; data-section=&quot;1&quot;&gt;&lt;b&gt;&amp;nbsp; &amp;nbsp;to leave an interface to the user, decide whether&amp;nbsp;&lt;/b&gt;&lt;/span&gt;&lt;/p&gt;&lt;p style=&quot;text-align: left; box-sizing: border-box; margin: 0px; padding: 0px; color: rgb(42, 43, 46); font-size: 16px; line-height: 24px; caret-color: rgb(42, 43, 46); font-family: &amp;quot;PingFang SC&amp;quot;, &amp;quot;Microsoft YaHei&amp;quot;, 微软雅黑, 宋体, &amp;quot;Malgun Gothic&amp;quot;, sans-serif; text-size-adjust: auto;&quot; class=&quot;tgt color_text_1 un-step-trans&quot; data-section=&quot;1&quot;&gt;&lt;span style=&quot;box-sizing: border-box; line-height: 24px; display: inline;&quot; class=&quot;tgt color_text_1&quot; data-group=&quot;1-0&quot; data-sentence=&quot;0&quot; data-section=&quot;1&quot;&gt;&lt;b&gt;&amp;nbsp; &amp;nbsp;to release DDL and whether to stop the job immediately.&lt;/b&gt;&lt;/span&gt;&lt;/p&gt;" style="text;html=1;resizable=0;autosize=1;align=center;verticalAlign=middle;points=[];fillColor=#ffe6cc;strokeColor=#d79b00;rounded=0;" parent="WIyWlLk6GJQsqaUBKTNV-1" vertex="1">
          <mxGeometry x="160" y="1020" width="470" height="90" as="geometry" />
        </mxCell>
      </root>
    </mxGraphModel>
  </diagram>
</mxfile>
